<svg width="463" height="62" viewBox="0 0 463 62" fill="none" xmlns="http://www.w3.org/2000/svg">
<path d="M2.93262 20.4858H18.7529V60H2.93262V20.4858ZM10.8794 12.356C9.48779 12.356 8.18164 12.2095 6.96094 11.9165C5.74023 11.6235 4.67822 11.2207 3.7749 10.708C2.896 10.1953 2.18799 9.57275 1.65088 8.84033C1.13818 8.10791 0.881836 7.30225 0.881836 6.42334C0.881836 5.44678 1.13818 4.59229 1.65088 3.85986C2.16357 3.10303 2.87158 2.48047 3.7749 1.99219C4.67822 1.50391 5.74023 1.1377 6.96094 0.893555C8.18164 0.649414 9.5 0.527344 10.916 0.527344C12.332 0.527344 13.6504 0.649414 14.8711 0.893555C16.1162 1.1377 17.1904 1.50391 18.0938 1.99219C18.9971 2.48047 19.7051 3.10303 20.2178 3.85986C20.7305 4.59229 20.9868 5.44678 20.9868 6.42334C20.9868 7.30225 20.7183 8.10791 20.1812 8.84033C19.6685 9.57275 18.9604 10.1953 18.0571 10.708C17.1538 11.2207 16.0796 11.6235 14.8345 11.9165C13.6138 12.2095 12.2954 12.356 10.8794 12.356ZM32.1182 3.75H47.9385V60H32.1182V3.75ZM60.791 20.4858H76.7944C76.5747 21.1938 76.3916 21.853 76.2451 22.4634C76.0986 23.0493 75.9888 23.6353 75.9155 24.2212C75.8423 24.8071 75.7812 25.4053 75.7324 26.0156C75.708 26.6016 75.6958 27.2363 75.6958 27.9199C76.355 26.8213 77.2095 25.7593 78.2593 24.7339C79.3091 23.7085 80.481 22.8174 81.7749 22.0605C83.0933 21.2793 84.4849 20.6567 85.9497 20.1929C87.439 19.729 88.9404 19.4971 90.4541 19.4971C91.6504 19.4971 92.8223 19.668 93.9697 20.0098C95.1416 20.3516 96.2524 20.8643 97.3022 21.5479C98.3521 22.2314 99.3164 23.0737 100.195 24.0747C101.074 25.0757 101.831 26.2476 102.466 27.5903C103.223 26.4185 104.199 25.3442 105.396 24.3677C106.616 23.3667 107.959 22.5122 109.424 21.8042C110.889 21.0718 112.439 20.5103 114.075 20.1196C115.735 19.7046 117.383 19.4971 119.019 19.4971C121.655 19.4971 123.889 19.8755 125.72 20.6323C127.576 21.3892 129.065 22.4634 130.188 23.855C131.335 25.2466 132.166 26.9189 132.678 28.8721C133.191 30.8252 133.447 32.9858 133.447 35.354V60H117.627V37.6611C117.627 36.9531 117.542 36.1475 117.371 35.2441C117.224 34.3164 116.931 33.4497 116.492 32.644C116.052 31.814 115.442 31.1182 114.661 30.5566C113.904 29.9951 112.903 29.7144 111.658 29.7144C110.803 29.7144 109.998 29.9219 109.241 30.3369C108.484 30.752 107.812 31.3013 107.227 31.9849C106.641 32.6685 106.177 33.4497 105.835 34.3286C105.493 35.2075 105.322 36.1108 105.322 37.0386V60H89.502V37.6611C89.502 36.6602 89.4043 35.6836 89.209 34.7314C89.0381 33.7793 88.7329 32.937 88.2935 32.2046C87.854 31.4478 87.2559 30.8496 86.499 30.4102C85.7422 29.9463 84.79 29.7144 83.6426 29.7144C82.8369 29.7144 82.0068 29.873 81.1523 30.1904C80.3223 30.4834 79.5654 30.8984 78.8818 31.4355C78.2227 31.9482 77.6733 32.5708 77.2339 33.3032C76.8188 34.0356 76.6113 34.8291 76.6113 35.6836V60H60.791V20.4858ZM146.08 3.75H161.9V60H146.08V3.75ZM184.348 61.062C182.785 61.062 181.284 60.8423 179.843 60.4028C178.427 59.9634 177.17 59.292 176.071 58.3887C174.973 57.4854 174.094 56.3501 173.435 54.9829C172.8 53.5913 172.482 51.9556 172.482 50.0757C172.482 48.269 172.775 46.7065 173.361 45.3882C173.947 44.0454 174.729 42.8979 175.705 41.9458C176.706 40.9937 177.866 40.2124 179.184 39.6021C180.527 38.9673 181.943 38.479 183.432 38.1372C184.921 37.771 186.447 37.5269 188.01 37.4048C189.597 37.2583 191.135 37.1851 192.624 37.1851C193.649 37.1851 194.638 37.2095 195.59 37.2583C196.542 37.3071 197.434 37.3682 198.264 37.4414C198.215 35.9033 197.922 34.6338 197.385 33.6328C196.848 32.6074 196.14 31.8018 195.261 31.2158C194.382 30.6055 193.356 30.1782 192.185 29.9341C191.013 29.6899 189.78 29.5679 188.486 29.5679C187.29 29.5679 186.057 29.6533 184.787 29.8242C183.542 29.9707 182.321 30.166 181.125 30.4102C179.929 30.6299 178.781 30.874 177.683 31.1426C176.608 31.4111 175.656 31.6553 174.826 31.875V21.6211C176.022 21.3525 177.304 21.0962 178.671 20.8521C180.063 20.5835 181.503 20.3516 182.993 20.1562C184.482 19.9609 185.996 19.8022 187.534 19.6802C189.096 19.5581 190.634 19.4971 192.148 19.4971C194.028 19.4971 195.871 19.6191 197.678 19.8633C199.509 20.083 201.23 20.4614 202.841 20.9985C204.477 21.5356 205.979 22.2559 207.346 23.1592C208.737 24.0625 209.921 25.1855 210.898 26.5283C211.899 27.8467 212.68 29.4092 213.242 31.2158C213.803 33.0225 214.084 35.1099 214.084 37.478V60H198.996V53.4448C198.41 54.6411 197.592 55.7153 196.542 56.6675C195.493 57.5952 194.309 58.3887 192.99 59.0479C191.672 59.707 190.268 60.2075 188.779 60.5493C187.29 60.8911 185.812 61.062 184.348 61.062ZM190.537 52.4561C191.22 52.4561 192.001 52.2729 192.88 51.9067C193.784 51.5161 194.626 50.9302 195.407 50.1489C196.213 49.3677 196.884 48.3789 197.421 47.1826C197.983 45.9863 198.264 44.5581 198.264 42.8979H197.055C195.883 42.8979 194.675 43.02 193.43 43.2642C192.209 43.5083 191.086 43.8745 190.061 44.3628C189.035 44.8511 188.193 45.4492 187.534 46.1572C186.875 46.8652 186.545 47.6831 186.545 48.6108C186.545 49.3433 186.667 49.9536 186.911 50.4419C187.155 50.9302 187.46 51.333 187.827 51.6504C188.217 51.9434 188.645 52.1509 189.108 52.2729C189.597 52.395 190.073 52.4561 190.537 52.4561ZM226.204 20.4858H241.255C241.207 21.1206 241.17 21.8286 241.146 22.6099C241.121 23.3667 241.109 24.1724 241.109 25.0269C241.109 25.8569 241.109 26.6992 241.109 27.5537C241.109 28.4082 241.109 29.2261 241.109 30.0073C241.597 28.811 242.232 27.5903 243.013 26.3452C243.794 25.0757 244.71 23.9404 245.76 22.9395C246.834 21.9385 248.042 21.1206 249.385 20.4858C250.752 19.8267 252.278 19.4971 253.963 19.4971C254.28 19.4971 254.622 19.5215 254.988 19.5703C255.379 19.5947 255.757 19.6436 256.124 19.7168C256.49 19.79 256.832 19.8877 257.149 20.0098C257.491 20.1074 257.771 20.2295 257.991 20.376L256.709 35.4639C255.611 35.0488 254.451 34.7437 253.23 34.5483C252.01 34.3286 250.948 34.2188 250.044 34.2188C248.799 34.2188 247.701 34.3774 246.749 34.6948C245.821 34.9878 245.027 35.3784 244.368 35.8667C243.709 36.355 243.184 36.8921 242.793 37.478C242.427 38.064 242.171 38.6377 242.024 39.1992V60H226.204V20.4858ZM266.339 61.062C264.704 61.062 263.336 60.8301 262.238 60.3662C261.164 59.9023 260.248 59.292 259.491 58.5352C258.734 57.7539 258.148 56.875 257.733 55.8984C257.343 54.8975 257.147 53.8843 257.147 52.8589C257.147 51.8823 257.355 50.9058 257.77 49.9292C258.185 48.9526 258.783 48.0737 259.564 47.2925C260.346 46.5112 261.273 45.8765 262.348 45.3882C263.446 44.8999 264.789 44.6558 266.376 44.6558C268.012 44.6558 269.403 44.8999 270.551 45.3882C271.698 45.8765 272.675 46.5112 273.48 47.2925C274.311 48.0737 274.945 48.9526 275.385 49.9292C275.824 50.8813 276.044 51.8457 276.044 52.8223C276.044 53.8721 275.824 54.8975 275.385 55.8984C274.97 56.875 274.359 57.7539 273.554 58.5352C272.772 59.292 271.796 59.9023 270.624 60.3662C269.477 60.8301 268.048 61.062 266.339 61.062ZM303.765 40.2979C303.765 42.0801 303.972 43.6304 304.387 44.9487C304.827 46.2671 305.437 47.3657 306.218 48.2446C307 49.0991 307.939 49.7461 309.038 50.1855C310.137 50.6006 311.37 50.8081 312.737 50.8081C314.495 50.8081 316.155 50.5762 317.717 50.1123C319.28 49.624 320.879 48.9648 322.515 48.1348L324.858 57.6562C323.784 58.2178 322.625 58.7183 321.379 59.1577C320.134 59.5728 318.853 59.9146 317.534 60.1831C316.216 60.4761 314.873 60.6958 313.506 60.8423C312.163 60.9888 310.845 61.062 309.551 61.062C306.597 61.062 303.813 60.647 301.201 59.8169C298.589 58.9868 296.294 57.7173 294.316 56.0083C292.363 54.2993 290.813 52.1387 289.666 49.5264C288.518 46.9141 287.944 43.8257 287.944 40.2612C287.944 36.6968 288.518 33.6084 289.666 30.9961C290.813 28.3838 292.363 26.2231 294.316 24.5142C296.294 22.8052 298.589 21.5356 301.201 20.7056C303.813 19.8755 306.597 19.4604 309.551 19.4604C310.845 19.4604 312.163 19.5337 313.506 19.6802C314.873 19.8267 316.216 20.0464 317.534 20.3394C318.853 20.6079 320.134 20.9619 321.379 21.4014C322.625 21.8164 323.784 22.3047 324.858 22.8662L322.515 32.3877C320.879 31.5576 319.28 30.9106 317.717 30.4468C316.155 29.9585 314.495 29.7144 312.737 29.7144C311.37 29.7144 310.137 29.9341 309.038 30.3735C307.939 30.7886 307 31.4355 306.218 32.3145C305.437 33.1934 304.827 34.3042 304.387 35.647C303.972 36.9653 303.765 38.5156 303.765 40.2979ZM356.754 61.062C353.873 61.062 351.31 60.7935 349.063 60.2563C346.817 59.7192 344.852 58.9746 343.167 58.0225C341.483 57.0703 340.042 55.9473 338.846 54.6533C337.674 53.335 336.722 51.9067 335.99 50.3687C335.257 48.8306 334.72 47.207 334.378 45.498C334.061 43.7891 333.902 42.0557 333.902 40.2979C333.902 38.5645 334.061 36.8555 334.378 35.1709C334.72 33.4619 335.257 31.8384 335.99 30.3003C336.722 28.7378 337.674 27.3096 338.846 26.0156C340.018 24.6973 341.446 23.562 343.131 22.6099C344.84 21.6333 346.817 20.8765 349.063 20.3394C351.31 19.7778 353.873 19.4971 356.754 19.4971C359.635 19.4971 362.198 19.7778 364.444 20.3394C366.69 20.8765 368.656 21.6333 370.34 22.6099C372.049 23.562 373.49 24.6973 374.662 26.0156C375.833 27.3096 376.786 28.7378 377.518 30.3003C378.25 31.8384 378.775 33.4619 379.093 35.1709C379.435 36.8555 379.605 38.5645 379.605 40.2979C379.605 42.0557 379.435 43.7891 379.093 45.498C378.775 47.207 378.25 48.8306 377.518 50.3687C376.786 51.9067 375.821 53.335 374.625 54.6533C373.453 55.9473 372.025 57.0703 370.34 58.0225C368.656 58.9746 366.69 59.7192 364.444 60.2563C362.198 60.7935 359.635 61.062 356.754 61.062ZM349.723 40.2979C349.723 41.6162 349.845 42.9102 350.089 44.1797C350.333 45.4248 350.724 46.5479 351.261 47.5488C351.822 48.5254 352.542 49.3188 353.421 49.9292C354.325 50.5151 355.436 50.8081 356.754 50.8081C358.072 50.8081 359.171 50.5151 360.05 49.9292C360.953 49.3188 361.673 48.5254 362.21 47.5488C362.772 46.5479 363.175 45.4248 363.419 44.1797C363.663 42.9102 363.785 41.6162 363.785 40.2979C363.785 38.9795 363.663 37.6978 363.419 36.4526C363.175 35.1831 362.772 34.0601 362.21 33.0835C361.673 32.0825 360.953 31.2769 360.05 30.6665C359.171 30.0562 358.072 29.751 356.754 29.751C355.436 29.751 354.325 30.0562 353.421 30.6665C352.542 31.2769 351.822 32.0825 351.261 33.0835C350.724 34.0601 350.333 35.1831 350.089 36.4526C349.845 37.6978 349.723 38.9795 349.723 40.2979ZM389.675 20.4858H405.678C405.458 21.1938 405.275 21.853 405.129 22.4634C404.982 23.0493 404.873 23.6353 404.799 24.2212C404.726 24.8071 404.665 25.4053 404.616 26.0156C404.592 26.6016 404.58 27.2363 404.58 27.9199C405.239 26.8213 406.093 25.7593 407.143 24.7339C408.193 23.7085 409.365 22.8174 410.659 22.0605C411.977 21.2793 413.369 20.6567 414.833 20.1929C416.323 19.729 417.824 19.4971 419.338 19.4971C420.534 19.4971 421.706 19.668 422.854 20.0098C424.025 20.3516 425.136 20.8643 426.186 21.5479C427.236 22.2314 428.2 23.0737 429.079 24.0747C429.958 25.0757 430.715 26.2476 431.35 27.5903C432.106 26.4185 433.083 25.3442 434.279 24.3677C435.5 23.3667 436.843 22.5122 438.308 21.8042C439.772 21.0718 441.323 20.5103 442.958 20.1196C444.619 19.7046 446.267 19.4971 447.902 19.4971C450.539 19.4971 452.773 19.8755 454.604 20.6323C456.459 21.3892 457.949 22.4634 459.072 23.855C460.219 25.2466 461.049 26.9189 461.562 28.8721C462.075 30.8252 462.331 32.9858 462.331 35.354V60H446.511V37.6611C446.511 36.9531 446.425 36.1475 446.254 35.2441C446.108 34.3164 445.815 33.4497 445.375 32.644C444.936 31.814 444.326 31.1182 443.544 30.5566C442.788 29.9951 441.787 29.7144 440.542 29.7144C439.687 29.7144 438.881 29.9219 438.125 30.3369C437.368 30.752 436.696 31.3013 436.11 31.9849C435.524 32.6685 435.061 33.4497 434.719 34.3286C434.377 35.2075 434.206 36.1108 434.206 37.0386V60H418.386V37.6611C418.386 36.6602 418.288 35.6836 418.093 34.7314C417.922 33.7793 417.617 32.937 417.177 32.2046C416.738 31.4478 416.14 30.8496 415.383 30.4102C414.626 29.9463 413.674 29.7144 412.526 29.7144C411.721 29.7144 410.891 29.873 410.036 30.1904C409.206 30.4834 408.449 30.8984 407.766 31.4355C407.106 31.9482 406.557 32.5708 406.118 33.3032C405.703 34.0356 405.495 34.8291 405.495 35.6836V60H389.675V20.4858Z" fill="#1400FF"/>
</svg>
