<svg width="105" height="17" viewBox="0 0 105 17" fill="none" xmlns="http://www.w3.org/2000/svg">
<path d="M0.100852 16V5.09091H3.57386V16H0.100852ZM1.84091 3.8196C1.35322 3.8196 0.934186 3.65862 0.583807 3.33665C0.233428 3.00994 0.0582387 2.61695 0.0582387 2.15767C0.0582387 1.70312 0.233428 1.31487 0.583807 0.992898C0.934186 0.666193 1.35322 0.50284 1.84091 0.50284C2.33333 0.50284 2.75237 0.666193 3.09801 0.992898C3.44839 1.31487 3.62358 1.70312 3.62358 2.15767C3.62358 2.61695 3.44839 3.00994 3.09801 3.33665C2.75237 3.65862 2.33333 3.8196 1.84091 3.8196ZM9.65746 1.45455V16H6.18445V1.45455H9.65746ZM12.268 16V5.09091H15.5706V7.09375H15.6913C15.9186 6.43087 16.3021 5.90767 16.8419 5.52415C17.3817 5.14062 18.0256 4.94886 18.7737 4.94886C19.5313 4.94886 20.18 5.14299 20.7197 5.53125C21.2595 5.91951 21.6028 6.44034 21.7496 7.09375H21.8632C22.0668 6.44508 22.4645 5.92661 23.0564 5.53835C23.6482 5.14536 24.3466 4.94886 25.1516 4.94886C26.1838 4.94886 27.0218 5.2803 27.6658 5.94318C28.3097 6.60133 28.6317 7.50568 28.6317 8.65625V16H25.1587V9.4517C25.1587 8.9072 25.019 8.4929 24.7396 8.20881C24.4603 7.91998 24.0981 7.77557 23.653 7.77557C23.1748 7.77557 22.7983 7.93182 22.5237 8.24432C22.2538 8.55208 22.1189 8.96638 22.1189 9.48722V16H18.7808V9.41619C18.7808 8.90956 18.6435 8.50947 18.3689 8.21591C18.0943 7.92235 17.7321 7.77557 17.2822 7.77557C16.9792 7.77557 16.7117 7.84896 16.4797 7.99574C16.2477 8.13778 16.0654 8.34138 15.9328 8.60653C15.805 8.87169 15.7411 9.18419 15.7411 9.54403V16H12.268ZM34.6567 1.45455V16H31.1837V1.45455H34.6567ZM40.3425 16.1847C39.6465 16.1847 39.0286 16.0687 38.4888 15.8366C37.9538 15.5999 37.53 15.2448 37.2175 14.7713C36.9098 14.2931 36.7559 13.6941 36.7559 12.9744C36.7559 12.3684 36.8624 11.857 37.0755 11.4403C37.2886 11.0237 37.5821 10.6851 37.9562 10.4247C38.3302 10.1643 38.7611 9.9678 39.2488 9.83523C39.7365 9.69792 40.2573 9.60559 40.8113 9.55824C41.4316 9.50142 41.9311 9.44223 42.3099 9.38068C42.6887 9.31439 42.9633 9.22206 43.1337 9.10369C43.3089 8.98059 43.3965 8.80776 43.3965 8.58523V8.54972C43.3965 8.18513 43.271 7.90341 43.0201 7.70455C42.7692 7.50568 42.4306 7.40625 42.0045 7.40625C41.5452 7.40625 41.1759 7.50568 40.8965 7.70455C40.6172 7.90341 40.4396 8.17803 40.3638 8.52841L37.1607 8.41477C37.2554 7.75189 37.4993 7.16004 37.8923 6.6392C38.29 6.11364 38.8345 5.7017 39.5258 5.40341C40.2218 5.10038 41.0575 4.94886 42.0329 4.94886C42.7289 4.94886 43.3705 5.03172 43.9576 5.19744C44.5447 5.35843 45.0561 5.59517 45.4917 5.90767C45.9273 6.21544 46.2635 6.59422 46.5002 7.04403C46.7417 7.49384 46.8624 8.00758 46.8624 8.58523V16H43.5954V14.4801H43.5102C43.316 14.8494 43.0674 15.1619 42.7644 15.4176C42.4661 15.6733 42.1134 15.8651 41.7062 15.9929C41.3037 16.1207 40.8492 16.1847 40.3425 16.1847ZM41.415 13.9119C41.789 13.9119 42.1252 13.8362 42.4235 13.6847C42.7265 13.5331 42.968 13.3248 43.1479 13.0597C43.3279 12.7898 43.4178 12.4773 43.4178 12.1222V11.0852C43.3184 11.1373 43.1977 11.1847 43.0556 11.2273C42.9183 11.2699 42.7668 11.3101 42.6011 11.348C42.4353 11.3859 42.2649 11.419 42.0897 11.4474C41.9145 11.4759 41.7464 11.5019 41.5854 11.5256C41.2587 11.5777 40.9794 11.6581 40.7474 11.767C40.5201 11.8759 40.3449 12.018 40.2218 12.1932C40.1034 12.3636 40.0442 12.5672 40.0442 12.804C40.0442 13.1638 40.1721 13.4384 40.4278 13.6278C40.6882 13.8172 41.0173 13.9119 41.415 13.9119ZM49.386 16V5.09091H52.7596V7.07955H52.8732C53.0721 6.35985 53.3964 5.82481 53.8462 5.47443C54.296 5.11932 54.8192 4.94176 55.4158 4.94176C55.5768 4.94176 55.7425 4.9536 55.913 4.97727C56.0835 4.99621 56.2421 5.02699 56.3888 5.0696V8.08807C56.2231 8.03125 56.0053 7.98627 55.7354 7.95312C55.4703 7.91998 55.2335 7.90341 55.0252 7.90341C54.6133 7.90341 54.2416 7.99574 53.9102 8.1804C53.5835 8.36032 53.3254 8.61364 53.136 8.94034C52.9513 9.26231 52.859 9.6411 52.859 10.0767V16H49.386ZM58.9071 16.206C58.3957 16.206 57.9578 16.026 57.5932 15.6662C57.2333 15.3063 57.0558 14.8707 57.0605 14.3594C57.0558 13.8575 57.2333 13.429 57.5932 13.0739C57.9578 12.714 58.3957 12.5341 58.9071 12.5341C59.3901 12.5341 59.8162 12.714 60.1855 13.0739C60.5596 13.429 60.749 13.8575 60.7537 14.3594C60.749 14.7003 60.659 15.0104 60.4838 15.2898C60.3134 15.5691 60.0884 15.7917 59.8091 15.9574C59.5345 16.1231 59.2338 16.206 58.9071 16.206ZM68.5401 16.206C67.3895 16.206 66.4023 15.9692 65.5784 15.4957C64.7593 15.0223 64.1295 14.3641 63.6892 13.5213C63.2489 12.6738 63.0287 11.6937 63.0287 10.581C63.0287 9.46354 63.2489 8.48343 63.6892 7.64062C64.1343 6.79309 64.7664 6.13258 65.5855 5.65909C66.4094 5.18561 67.3919 4.94886 68.533 4.94886C69.5415 4.94886 70.4198 5.13116 71.1679 5.49574C71.9207 5.86032 72.5079 6.37642 72.9293 7.04403C73.3554 7.70691 73.5803 8.4858 73.604 9.38068H70.3582C70.292 8.82197 70.1026 8.384 69.7901 8.06676C69.4823 7.74953 69.0798 7.59091 68.5827 7.59091C68.1802 7.59091 67.8275 7.70455 67.5244 7.93182C67.2214 8.15436 66.9847 8.4858 66.8142 8.92614C66.6485 9.36174 66.5656 9.90151 66.5656 10.5455C66.5656 11.1894 66.6485 11.7339 66.8142 12.179C66.9847 12.6193 67.2214 12.9531 67.5244 13.1804C67.8275 13.4029 68.1802 13.5142 68.5827 13.5142C68.9046 13.5142 69.1887 13.4455 69.4349 13.3082C69.6859 13.1709 69.8919 12.9697 70.0528 12.7045C70.2138 12.4347 70.3156 12.108 70.3582 11.7244H73.604C73.5708 12.6241 73.3459 13.41 72.9293 14.0824C72.5173 14.7547 71.9373 15.2779 71.1892 15.652C70.4458 16.0213 69.5628 16.206 68.5401 16.206ZM80.8736 16.206C79.7278 16.206 78.743 15.9716 77.9191 15.5028C77.1 15.0294 76.4679 14.3712 76.0228 13.5284C75.5825 12.6809 75.3623 11.6984 75.3623 10.581C75.3623 9.45881 75.5825 8.47633 76.0228 7.63352C76.4679 6.78598 77.1 6.12784 77.9191 5.65909C78.743 5.18561 79.7278 4.94886 80.8736 4.94886C82.0195 4.94886 83.002 5.18561 83.8211 5.65909C84.645 6.12784 85.2771 6.78598 85.7174 7.63352C86.1625 8.47633 86.385 9.45881 86.385 10.581C86.385 11.6984 86.1625 12.6809 85.7174 13.5284C85.2771 14.3712 84.645 15.0294 83.8211 15.5028C83.002 15.9716 82.0195 16.206 80.8736 16.206ZM80.895 13.5852C81.3116 13.5852 81.6644 13.4574 81.9532 13.2017C82.242 12.946 82.4622 12.5909 82.6137 12.1364C82.77 11.6818 82.8481 11.1562 82.8481 10.5597C82.8481 9.9536 82.77 9.4233 82.6137 8.96875C82.4622 8.5142 82.242 8.15909 81.9532 7.90341C81.6644 7.64773 81.3116 7.51989 80.895 7.51989C80.4641 7.51989 80.0995 7.64773 79.8012 7.90341C79.5076 8.15909 79.2827 8.5142 79.1265 8.96875C78.975 9.4233 78.8992 9.9536 78.8992 10.5597C78.8992 11.1562 78.975 11.6818 79.1265 12.1364C79.2827 12.5909 79.5076 12.946 79.8012 13.2017C80.0995 13.4574 80.4641 13.5852 80.895 13.5852ZM88.5641 16V5.09091H91.8667V7.09375H91.9874C92.2147 6.43087 92.5982 5.90767 93.138 5.52415C93.6778 5.14062 94.3217 4.94886 95.0698 4.94886C95.8274 4.94886 96.4761 5.14299 97.0158 5.53125C97.5556 5.91951 97.8989 6.44034 98.0457 7.09375H98.1593C98.3629 6.44508 98.7606 5.92661 99.3525 5.53835C99.9443 5.14536 100.643 4.94886 101.448 4.94886C102.48 4.94886 103.318 5.2803 103.962 5.94318C104.606 6.60133 104.928 7.50568 104.928 8.65625V16H101.455V9.4517C101.455 8.9072 101.315 8.4929 101.036 8.20881C100.756 7.91998 100.394 7.77557 99.9491 7.77557C99.4709 7.77557 99.0944 7.93182 98.8198 8.24432C98.5499 8.55208 98.415 8.96638 98.415 9.48722V16H95.0769V9.41619C95.0769 8.90956 94.9396 8.50947 94.665 8.21591C94.3904 7.92235 94.0281 7.77557 93.5783 7.77557C93.2753 7.77557 93.0078 7.84896 92.7758 7.99574C92.5438 8.13778 92.3615 8.34138 92.2289 8.60653C92.1011 8.87169 92.0371 9.18419 92.0371 9.54403V16H88.5641Z" fill="#1400FF"/>
</svg>
